<svg viewBox="0 0 96 96" xmlns="http://www.w3.org/2000/svg" xmlns:xlink="http://www.w3.org/1999/xlink" id="Icons_ConductorFemale" overflow="hidden"><g id="Icons"><path d="M75.29 57.48C72.0392 54.8819 68.4014 52.8091 64.509 51.337 65.919 46.344 69.4 31.1 63.418 19.05 61.7649 15.4615 58.9416 12.5413 55.411 10.768 54.9751 10.5579 54.4589 10.6048 54.068 10.89L53.142 11.549 52.119 10.118C51.8081 9.67027 51.335 9.3614 50.8 9.257 49.8454 9.08684 48.8777 9.00084 47.908 9 39.835 9 33.622 14.674 31.249 22.383 27.434 33.703 30.257 46.818 31.506 51.331 27.607 52.8042 23.9629 54.879 20.706 57.48 18.4485 59.3411 17.0988 62.0819 17 65.006L17 71.836C16.2325 71.6724 15.4449 71.6232 14.663 71.69L6.425 44.69C6.19835 43.8932 5.36866 43.431 4.57184 43.6576 3.77502 43.8843 3.31281 44.714 3.53946 45.5108 3.54463 45.5289 3.55015 45.547 3.556 45.565L11.732 72.365C8.684 73.384 6.774 75.146 8.276 80.955 9.501 85.692 11.406 86.976 13.756 86.976 14.8319 86.9352 15.8987 86.7616 16.932 86.459 18.3029 86.1556 19.5641 85.4814 20.578 84.51 24.659 86.115 30.978 87.175 37.998 87.691L37.998 57.89 41.475 64.15 48 59.8 54.521 64.147 58.001 57.884 58.001 87.731C67.073 87.1 74.93 85.557 78.201 83.105L79.001 82.505 79 64.963C78.8897 62.053 77.5394 59.3294 75.29 57.48ZM16.008 82.568C13.032 83.335 13.031 83.338 12.156 79.952 11.281 76.566 11.28 76.565 14.212 75.807L14.326 75.777C14.9261 75.6209 15.5547 75.6096 16.16 75.744L16.388 75.794C17.6042 76.0667 18.5752 76.9805 18.921 78.178 19.3198 80.1929 18.0195 82.1525 16.008 82.568ZM42.525 59.85 38.6 52.794 38.888 52.675C39.0617 52.6003 39.2309 52.5159 39.395 52.422L46.109 57.457ZM41.49 50.24C41.8206 49.5574 41.9916 48.8085 41.99 48.05L41.99 47.857C45.8477 49.4079 50.1598 49.3838 54 47.79L54 48.05C54.0015 48.9847 54.2655 49.9001 54.762 50.692L48.055 55.163ZM53.482 59.85 49.958 57.5 57.158 52.7 57.399 52.8ZM59.905 33C59.905 39.6274 54.5324 45 47.905 45 41.2776 45 35.905 39.6274 35.905 33L35.905 31.62C39.264 30.525 48.687 27.099 52.505 22.044 55.2424 23.7373 57.7326 25.8009 59.905 28.176Z"/><path d="M84.015 22C83.3031 21.5405 82.7402 20.8838 82.395 20.11L82.395 19.41C82.395 18.692 81.813 18.11 81.095 18.11 80.377 18.11 79.795 18.692 79.795 19.41L79.795 39.17C78.5354 38.9498 77.2397 39.0742 76.045 39.53 73.205 40.53 71.465 42.92 72.155 44.81 72.845 46.7 75.685 47.4 78.525 46.37 80.2637 45.835 81.679 44.5623 82.395 42.89L82.395 28.83C82.6362 29.034 82.8938 29.218 83.165 29.38 87.525 31.96 85.115 36.12 87.255 36.14 89.945 36.16 90.015 26 84.015 22Z"/></g></svg>